<svg width="72" height="72" viewBox="0 0 72 72" fill="none" xmlns="http://www.w3.org/2000/svg">
  <path
    d="M13.227 13.227C14.4929 11.9612 16.2098 11.25 18 11.25H54C55.7902 11.25 57.5071 11.9612 58.773 13.227C60.0388 14.4929 60.75 16.2098 60.75 18V39C60.75 40.2426 61.7574 41.25 63 41.25C64.2426 41.25 65.25 40.2426 65.25 39V18C65.25 15.0163 64.0647 12.1548 61.9549 10.045C59.8452 7.93526 56.9837 6.75 54 6.75H18C15.0163 6.75 12.1548 7.93526 10.045 10.045C7.93526 12.1548 6.75 15.0163 6.75 18V54C6.75 56.9837 7.93526 59.8452 10.045 61.9549C12.1548 64.0647 15.0163 65.25 18 65.25H39C40.2426 65.25 41.25 64.2426 41.25 63C41.25 61.7574 40.2426 60.75 39 60.75H18C16.2098 60.75 14.4929 60.0388 13.227 58.773C11.9612 57.5071 11.25 55.7902 11.25 54V48.9318L25.5747 34.6071C26.6237 33.6033 27.6357 33.2406 28.5 33.2406C29.3643 33.2406 30.3763 33.6033 31.4253 34.6071L40.409 43.5908C41.2877 44.4695 42.7123 44.4695 43.591 43.5908L43.5947 43.5871L46.5747 40.6072C47.6236 39.6033 48.6357 39.2406 49.5 39.2406C50.3683 39.2406 51.3857 39.6067 52.4399 40.6211C53.3353 41.4828 54.7596 41.4554 55.6213 40.56C56.4829 39.6646 56.4555 38.2402 55.5601 37.3786C53.8303 35.714 51.7397 34.7406 49.5 34.7406C47.2603 34.7406 45.1697 35.714 43.4399 37.3786L43.409 37.4089L42 38.8179L34.591 31.4089L34.5601 31.3786C32.8303 29.714 30.7397 28.7406 28.5 28.7406C26.2603 28.7406 24.1697 29.714 22.4399 31.3786L22.409 31.4089L11.25 42.5679V18C11.25 16.2098 11.9612 14.4929 13.227 13.227Z"
    fill="#B5B8D3" />
  <path
    d="M45 21.75C43.7574 21.75 42.75 22.7574 42.75 24C42.75 25.2426 43.7574 26.25 45 26.25H45.03C46.2726 26.25 47.28 25.2426 47.28 24C47.28 22.7574 46.2726 21.75 45.03 21.75H45Z"
    fill="#B5B8D3" />
  <path
    d="M49.409 49.409C50.2877 48.5303 51.7123 48.5303 52.591 49.409L58.5 55.318L64.409 49.409C65.2877 48.5303 66.7123 48.5303 67.591 49.409C68.4697 50.2877 68.4697 51.7123 67.591 52.591L61.682 58.5L67.591 64.409C68.4697 65.2877 68.4697 66.7123 67.591 67.591C66.7123 68.4697 65.2877 68.4697 64.409 67.591L58.5 61.682L52.591 67.591C51.7123 68.4697 50.2877 68.4697 49.409 67.591C48.5303 66.7123 48.5303 65.2877 49.409 64.409L55.318 58.5L49.409 52.591C48.5303 51.7123 48.5303 50.2877 49.409 49.409Z"
    fill="#B5B8D3" />
</svg>