<svg width="72" height="73" viewBox="0 0 72 73" fill="none" xmlns="http://www.w3.org/2000/svg">
<g clip-path="url(#clip0_803_35137)">
<path d="M72 0.789062H0V72.7891H72V0.789062Z" fill="#35344F"/>
<path d="M55.6875 17.1016H16.3125V56.4766H55.6875V17.1016Z" stroke="#A25AFF" stroke-width="1.125" stroke-miterlimit="10"/>
<path d="M16.3125 19.9141C17.8658 19.9141 19.125 18.6549 19.125 17.1016C19.125 15.5483 17.8658 14.2891 16.3125 14.2891C14.7592 14.2891 13.5 15.5483 13.5 17.1016C13.5 18.6549 14.7592 19.9141 16.3125 19.9141Z" fill="white" stroke="#A25AFF" stroke-width="1.125" stroke-miterlimit="10"/>
<path d="M55.9126 19.9141C57.4659 19.9141 58.7251 18.6549 58.7251 17.1016C58.7251 15.5483 57.4659 14.2891 55.9126 14.2891C54.3593 14.2891 53.1001 15.5483 53.1001 17.1016C53.1001 18.6549 54.3593 19.9141 55.9126 19.9141Z" fill="white" stroke="#A25AFF" stroke-width="1.125" stroke-miterlimit="10"/>
<path d="M16.1436 59.2891C17.6969 59.2891 18.9561 58.0299 18.9561 56.4766C18.9561 54.9233 17.6969 53.6641 16.1436 53.6641C14.5903 53.6641 13.3311 54.9233 13.3311 56.4766C13.3311 58.0299 14.5903 59.2891 16.1436 59.2891Z" fill="white" stroke="#A25AFF" stroke-width="1.125" stroke-miterlimit="10"/>
<path d="M55.9126 59.2891C57.4659 59.2891 58.7251 58.0299 58.7251 56.4766C58.7251 54.9233 57.4659 53.6641 55.9126 53.6641C54.3593 53.6641 53.1001 54.9233 53.1001 56.4766C53.1001 58.0299 54.3593 59.2891 55.9126 59.2891Z" fill="white" stroke="#A25AFF" stroke-width="1.125" stroke-miterlimit="10"/>
<path d="M28.6875 36.7891H8.4375C7.2 36.7891 6.1875 37.8016 6.1875 39.0391V45.7891C6.1875 47.0266 7.2 48.0391 8.4375 48.0391H28.6875C29.925 48.0391 30.9375 47.0266 30.9375 45.7891V39.0391C30.9375 37.8016 29.925 36.7891 28.6875 36.7891Z" fill="url(#paint0_linear_803_35137)"/>
<path d="M45.5625 46.9141H36.5625C35.325 46.9141 34.3125 47.9266 34.3125 49.1641V58.1641C34.3125 59.4016 35.325 60.4141 36.5625 60.4141H45.5625C46.8 60.4141 47.8125 59.4016 47.8125 58.1641V49.1641C47.8125 47.9266 46.8 46.9141 45.5625 46.9141Z" fill="url(#paint1_linear_803_35137)"/>
<path d="M32.625 22.1641H23.625C22.3875 22.1641 21.375 23.1766 21.375 24.4141V28.9141C21.375 30.1516 22.3875 31.1641 23.625 31.1641H32.625C33.8625 31.1641 34.875 30.1516 34.875 28.9141V24.4141C34.875 23.1766 33.8625 22.1641 32.625 22.1641Z" fill="url(#paint2_linear_803_35137)"/>
<path d="M64.6875 25.2012H42.1875C40.95 25.2012 39.9375 26.2137 39.9375 27.4512V37.5762C39.9375 38.8137 40.95 39.8262 42.1875 39.8262H64.6875C65.925 39.8262 66.9375 38.8137 66.9375 37.5762V27.4512C66.9375 26.2137 65.925 25.2012 64.6875 25.2012Z" fill="white"/>
</g>
<defs>
<linearGradient id="paint0_linear_803_35137" x1="10.2215" y1="34.0731" x2="26.9035" y2="50.755" gradientUnits="userSpaceOnUse">
<stop offset="9.58467e-09" stop-color="#A25AFF"/>
<stop offset="0.75" stop-color="#1CBCFE"/>
</linearGradient>
<linearGradient id="paint1_linear_803_35137" x1="34.9715" y1="47.5731" x2="47.1535" y2="59.755" gradientUnits="userSpaceOnUse">
<stop offset="3.35463e-08" stop-color="#6440A2"/>
<stop offset="0.75" stop-color="#A25AFF"/>
</linearGradient>
<linearGradient id="paint2_linear_803_35137" x1="23.159" y1="21.6981" x2="33.091" y2="31.63" gradientUnits="userSpaceOnUse">
<stop offset="9.58467e-09" stop-color="#A25AFF"/>
<stop offset="0.75" stop-color="#1CBCFE"/>
</linearGradient>
<clipPath id="clip0_803_35137">
<rect y="0.789062" width="72" height="72" rx="12" fill="white"/>
</clipPath>
</defs>
</svg>
