<svg width="120" height="120" viewBox="0 0 120 120" fill="none" xmlns="http://www.w3.org/2000/svg">
<path d="M64.6087 101.166C57.6393 101.56 57.3213 101.878 56.9277 108.847C56.534 101.878 56.2161 101.56 49.2467 101.166C56.2161 100.773 56.534 100.455 56.9277 93.4854C57.3213 100.455 57.6393 100.773 64.6087 101.166Z" fill="#BABBC0"/>
<path d="M33.2221 39.3194C27.0911 39.6657 26.8115 39.9454 26.4652 46.0763C26.1189 39.9454 25.8392 39.6657 19.7083 39.3194C25.8392 38.9731 26.1189 38.6935 26.4652 32.5625C26.8115 38.6935 27.0911 38.9731 33.2221 39.3194Z" fill="#BABBC0"/>
<path d="M47.254 66.6627C47.254 66.6627 57.1973 70.9853 48.6574 87.4475C40.1246 103.91 39.2544 112.976 39.2544 112.976C39.2544 112.976 34.2442 107.341 37.6335 99.0399C37.6335 99.0399 32.8267 108.962 32.932 111.804C32.932 111.804 23.543 108.674 16.4557 102.191L22.3782 92.5911L15.5855 100.303L17.7398 90.8789C17.7398 90.8789 12.2594 97.2646 11.9998 99.3136C11.9998 99.3136 7.11582 96.0295 7.50878 92.7174C7.90876 89.4053 10.442 86.5493 10.442 86.5493C10.442 86.5493 4.42123 91.2508 3.60022 92.5981C3.60022 92.5981 5.61414 81.3145 16.7293 73.0483C27.8445 64.7891 37.9633 56.986 47.254 66.6627Z" fill="#D1D2D5"/>
<path d="M49.0437 67.9188C36.911 72.6343 26.0204 80.8654 17.698 91.0965L17.7471 90.8789C17.7471 90.8789 12.9895 96.4225 12.1334 98.8364C12.0492 98.9627 11.965 99.096 11.8808 99.2294C11.151 98.7101 7.15823 95.7348 7.51611 92.7174C7.91608 89.4053 10.4493 86.5493 10.4493 86.5493C10.4493 86.5493 4.42855 91.2508 3.60754 92.5981C3.60754 92.5981 5.62147 81.3145 16.7367 73.0483C27.8519 64.7891 37.9706 56.986 47.2613 66.6627C47.2613 66.6627 48.0824 67.0206 49.0507 67.9188H49.0437Z" fill="#E4E4E4"/>
<path d="M39.9982 57.0987C37.6896 59.8074 39.3527 65.0211 43.7173 68.7402C48.082 72.4593 53.4922 73.2803 55.8079 70.5647C58.1166 67.856 56.4535 62.6423 52.0888 58.9232C47.7241 55.2041 42.3139 54.3831 39.9982 57.0917V57.0987Z" fill="#E4E4E4"/>
<path d="M50.0816 70.9784C50.0816 70.9784 46.7204 73.4344 43.4153 70.3679C40.1102 67.3084 40.9874 63.856 40.9874 63.856C40.9874 63.856 45.7731 71.1819 50.0746 70.9714L50.0816 70.9784Z" fill="#BABBC0"/>
<path d="M52.0183 64.4663C52.0183 64.4663 67.2876 48.5093 79.2098 39.3869C91.132 30.2716 120.66 14.9532 115.882 8.25177C111.103 1.55037 85.3639 24.0264 73.6803 34.7205C62.0037 45.4077 47.829 60.6209 47.829 60.6209C47.829 60.6209 48.5658 65.3434 52.0113 64.4663H52.0183Z" fill="#BABBC0"/>
<path d="M31.641 74.6628C19.7469 75.3364 19.2066 75.8837 18.5329 87.7708C17.8593 75.8767 17.319 75.3364 5.42487 74.6628C17.319 73.9891 17.8593 73.4418 18.5329 61.5547C19.2066 73.4488 19.7539 73.9891 31.641 74.6628Z" fill="#BABBC0"/>
<path d="M96.2564 66.3551C84.3623 67.0288 83.8219 67.5761 83.1483 79.4632C82.4746 67.5691 81.9343 67.0288 70.0402 66.3551C81.9343 65.6815 82.4746 65.1342 83.1483 53.2471C83.8219 65.1412 84.3693 65.6815 96.2564 66.3551Z" fill="#BABBC0"/>
</svg>
