<svg width="32" height="32" viewBox="0 0 32 32" fill="none" xmlns="http://www.w3.org/2000/svg">
<path d="M23.0003 3.87587C25.1119 5.09508 26.8684 6.84464 28.0961 8.95135C29.3237 11.0581 29.9798 13.4489 29.9995 15.8871C30.0192 18.3253 29.4018 20.7264 28.2084 22.8527C27.0149 24.9789 25.2868 26.7567 23.1952 28.0098C21.1036 29.263 18.7209 29.9481 16.2831 29.9975C13.8453 30.0468 11.4369 29.4586 9.29627 28.2911C7.15565 27.1236 5.35706 25.4173 4.07856 23.341C2.80006 21.2648 2.08597 18.8907 2.007 16.4536L2 16L2.007 15.5464C2.08541 13.1286 2.78898 10.7723 4.04912 8.70732C5.30926 6.64234 7.08298 4.93912 9.19734 3.76371C11.3117 2.58829 13.6945 1.9808 16.1136 2.00046C18.5326 2.02012 20.9053 2.66625 23.0003 3.87587ZM13.9155 11.996C13.6222 11.8214 13.2752 11.7599 12.9397 11.8233C12.6043 11.8866 12.3035 12.0703 12.0941 12.3398C11.8846 12.6093 11.7808 12.9461 11.8022 13.2868C11.8236 13.6275 11.9687 13.9486 12.2103 14.1898L14.0191 16L12.2103 17.8102L12.0941 17.9418C11.8765 18.2232 11.7742 18.5769 11.808 18.931C11.8417 19.2851 12.0089 19.6131 12.2757 19.8483C12.5425 20.0836 12.8889 20.2084 13.2444 20.1976C13.5999 20.1867 13.938 20.041 14.1899 19.7899L16.0002 17.981L17.8104 19.7899L17.942 19.9061C18.2234 20.1236 18.577 20.226 18.9311 20.1922C19.2852 20.1585 19.6132 19.9912 19.8485 19.7245C20.0837 19.4577 20.2086 19.1113 20.1977 18.7558C20.1869 18.4003 20.0411 18.0622 19.79 17.8102L17.9812 16L19.79 14.1898L19.9062 14.0582C20.1238 13.7768 20.2261 13.4231 20.1924 13.069C20.1587 12.715 19.9914 12.387 19.7246 12.1517C19.4578 11.9165 19.1115 11.7916 18.7559 11.8025C18.4004 11.8133 18.0623 11.9591 17.8104 12.2102L16.0002 14.019L14.1899 12.2102L14.0583 12.094L13.9155 11.996Z" fill="#D84836"/>
</svg>
