<svg width="32" height="32" viewBox="0 0 32 32" fill="none" xmlns="http://www.w3.org/2000/svg">
<path d="M23.0003 3.87585C25.1119 5.09505 26.8684 6.84458 28.0961 8.95127C29.3237 11.058 29.9798 13.4487 29.9995 15.8869C30.0192 18.3251 29.4018 20.7262 28.2084 22.8524C27.0149 24.9787 25.2868 26.7563 23.1952 28.0095C21.1036 29.2626 18.7209 29.9478 16.2831 29.9971C13.8453 30.0465 11.4369 29.4583 9.29627 28.2908C7.15565 27.1233 5.35706 25.417 4.07856 23.3408C2.80006 21.2646 2.08597 18.8904 2.007 16.4534L2 15.9998L2.007 15.5462C2.08541 13.1284 2.78898 10.7722 4.04912 8.70724C5.30926 6.64228 7.08298 4.93908 9.19734 3.76368C11.3117 2.58829 13.6945 1.9808 16.1136 2.00046C18.5326 2.02012 20.9053 2.66625 23.0003 3.87585ZM21.19 12.21C20.949 11.969 20.6282 11.8242 20.288 11.8028C19.9477 11.7814 19.6114 11.8849 19.342 12.0938L19.2104 12.21L14.6002 16.8188L12.7899 15.01L12.6583 14.8938C12.3889 14.685 12.0526 14.5817 11.7125 14.6031C11.3723 14.6246 11.0517 14.7694 10.8107 15.0104C10.5697 15.2514 10.4249 15.5721 10.4034 15.9122C10.3819 16.2524 10.4853 16.5887 10.6941 16.858L10.8103 16.9896L13.6103 19.7896L13.7419 19.9058C13.9875 20.0963 14.2894 20.1997 14.6002 20.1997C14.9109 20.1997 15.2128 20.0963 15.4584 19.9058L15.59 19.7896L21.19 14.1896L21.3062 14.058C21.5152 13.7887 21.6187 13.4523 21.5973 13.1121C21.5759 12.7719 21.4311 12.4511 21.19 12.21Z" fill="#4CA172"/>
</svg>
