<svg width="96" height="96" viewBox="0 0 96 96" fill="none" xmlns="http://www.w3.org/2000/svg">
<path d="M25.2082 59.2272L27.1084 54.5529L28.615 50.8472L28.6163 50.8451L41.3975 19.4015C42.6534 16.3099 46.3094 14.2334 50.4926 14.2334L58.7364 14.2334C63.5012 14.2334 67.871 16.3986 69.8665 19.7508C69.8924 19.794 69.9156 19.8384 69.9333 19.8848L73.6629 29.3485C73.8686 29.8686 73.8086 30.4237 73.494 30.909L72.2312 32.8653C71.7668 33.5849 70.8323 34.0312 69.7944 34.0312C68.7564 34.0312 67.8219 33.5849 67.3575 32.8653L62.3066 25.0413C62.0954 24.7132 61.7031 24.5021 61.2318 24.4642C60.8218 24.4325 60.4254 24.537 60.1353 24.7585L59.1654 26.6029C59.051 26.8214 59.0333 27.0662 59.1178 27.2941L71.0543 59.2726C84.112 61.4652 91.5889 65.2183 91.5889 69.6289C91.5889 77.2239 69.4266 81.7631 47.9998 81.7631C26.5745 81.7631 4.41081 77.2239 4.41081 69.6289C4.41081 65.1888 11.9871 61.4135 25.2082 59.2272ZM45.9307 69.7745C47.2847 70.0077 48.715 70.0077 50.0676 69.7745L70.8064 66.2049L67.95 58.5498L52.0863 58.5498L52.0863 58.5224C50.9448 59.1924 49.5391 59.6049 47.9998 59.6049C46.4606 59.6049 45.0549 59.1924 43.9134 58.5224L43.9134 58.5498L28.3398 58.5498L25.2259 66.2102L45.9307 69.7745ZM41.7666 52.2189L30.9143 52.2189L29.766 55.0425L29.198 56.4395L41.7666 56.4395C41.3988 55.7916 41.189 55.0804 41.189 54.3292C41.189 53.5779 41.3988 52.8667 41.7666 52.2189ZM47.9998 57.4946C50.2528 57.4946 52.0863 56.0744 52.0863 54.3292C52.0863 52.584 50.2528 51.1637 47.9998 51.1637C45.7468 51.1637 43.9134 52.584 43.9134 54.3292C43.9134 56.0744 45.7468 57.4946 47.9998 57.4946ZM54.2331 56.4395L66.7935 56.4395L65.0745 52.2189L54.2331 52.2189C54.6008 52.8667 54.8106 53.5779 54.8106 54.3292C54.8106 55.0804 54.6008 55.7916 54.2331 56.4395ZM56.5024 27.8807C56.2477 27.1991 56.2981 26.4626 56.6441 25.8063L57.7011 23.7973C57.7515 23.7034 57.8169 23.6158 57.9 23.5367C58.7759 22.6894 60.1326 22.2504 61.522 22.3665C62.9141 22.4805 64.1196 23.1283 64.7462 24.0991L69.7944 31.922L71.0571 29.9657L67.3547 20.5717C65.7855 18.0003 62.4115 16.3437 58.735 16.3437L50.4912 16.3437C47.504 16.3437 44.8928 17.8272 43.9951 20.0357L31.7711 50.1086L43.9134 50.1086L43.9134 50.136C45.0549 49.466 46.4606 49.0534 47.9998 49.0534C49.5391 49.0534 50.9448 49.466 52.0863 50.136L52.0863 50.1086L64.7993 50.1086L56.5024 27.8807ZM47.9998 79.6528C67.3275 79.6528 88.8645 75.5367 88.8645 69.6289C88.8645 66.5816 82.2908 63.4985 71.918 61.5833L73.8263 66.6977C73.9312 66.9773 73.8822 67.278 73.6888 67.5291C73.4967 67.7792 73.1793 67.9575 72.8129 68.0208L63.2941 69.6595L65.5376 72.8123L63.1511 73.8316L60.5221 70.1364L50.6574 71.8342C49.787 71.984 48.8934 72.0589 47.9985 72.0589C47.1035 72.0589 46.21 71.984 45.3395 71.8342L36.6653 70.3411L34.1821 73.8316L31.7956 72.8123L33.8933 69.8642L23.1841 68.0208C22.8122 67.9565 22.4907 67.775 22.3 67.5186C22.1093 67.2622 22.0657 66.9562 22.1801 66.6745L24.2642 61.5485C13.7838 63.4594 7.13512 66.5637 7.13512 69.6289C7.13512 75.5367 28.6722 79.6528 47.9998 79.6528Z" fill="#1C3F02"/>
<path d="M50.7239 31.1143L53.4482 31.1143L53.4482 33.2246L50.7239 33.2246L50.7239 31.1143Z" fill="#1C3F02"/>
<path d="M41.1888 35.3369L43.9131 35.3369L43.9131 37.4472L41.1888 37.4472L41.1888 35.3369Z" fill="#1C3F02"/>
<path d="M47.9988 38.5L50.7231 38.5L50.7231 40.6103L47.9988 40.6103L47.9988 38.5Z" fill="#1C3F02"/>
<path d="M54.8104 42.7217L57.5347 42.7217L57.5347 44.832L54.8104 44.832L54.8104 42.7217Z" fill="#1C3F02"/>
<path d="M47.9998 22.6758L50.7241 22.6758L50.7241 24.7861L47.9998 24.7861L47.9998 22.6758Z" fill="#1C3F02"/>
<path d="M43.9129 26.8945L46.6372 26.8945L46.6372 29.0048L43.9129 29.0048L43.9129 26.8945Z" fill="#1C3F02"/>
<path d="M46.6375 53.2744L49.3618 53.2744L49.3618 55.3847L46.6375 55.3847L46.6375 53.2744Z" fill="#1C3F02"/>
<path d="M80.6917 39.5576L83.416 39.5576L83.416 42.7231L80.6917 42.7231L80.6917 39.5576Z" fill="#1C3F02"/>
<path d="M22.7281 20.5635L25.4524 20.5635L25.4524 23.7289L22.7281 23.7289L22.7281 20.5635Z" fill="#1C3F02"/>
<path d="M80.6922 44.833L83.4165 44.833L83.4165 47.9985L80.6922 47.9985L80.6922 44.833Z" fill="#1C3F02"/>
<path d="M22.7281 25.8408L25.4524 25.8408L25.4524 29.0063L22.7281 29.0063L22.7281 25.8408Z" fill="#1C3F02"/>
<path d="M76.6054 42.7217L80.6919 42.7217L80.6919 44.832L76.6054 44.832L76.6054 42.7217Z" fill="#1C3F02"/>
<path d="M18.6418 23.7314L22.7283 23.7314L22.7283 25.8417L18.6418 25.8417L18.6418 23.7314Z" fill="#1C3F02"/>
<path d="M83.4155 42.7217L87.502 42.7217L87.502 44.832L83.4155 44.832L83.4155 42.7217Z" fill="#1C3F02"/>
<path d="M25.4528 23.7305L29.5393 23.7305L29.5393 25.8408L25.4528 25.8408L25.4528 23.7305Z" fill="#1C3F02"/>
</svg>
