<svg width="62" height="41" viewBox="0 0 62 41" fill="none" xmlns="http://www.w3.org/2000/svg">
<path fill-rule="evenodd" clip-rule="evenodd" d="M31.8779 0C31.8779 0 31.8771 0 31.8766 0C31.875 0 31.8734 0 31.8718 0.000386301C31.7816 0.00482877 31.6932 0.0871109 31.664 0.19373C30.8201 2.61951 29.4418 4.12126 27.2318 4.54638C27.1518 4.55469 27.0742 4.62287 27.0402 4.715C27.0378 4.72138 27.0355 4.72794 27.0337 4.73432C27.0331 4.73644 27.0326 4.73837 27.0321 4.7405C27.0309 4.74513 27.0297 4.74977 27.0286 4.7546C27.028 4.75827 27.0273 4.76194 27.0266 4.76561C27.026 4.7687 27.0254 4.77198 27.025 4.77507C27.0244 4.78029 27.0239 4.7855 27.0236 4.79072C27.0233 4.79226 27.0233 4.79381 27.0232 4.79535C27.0178 4.89425 27.0715 4.96996 27.1536 4.97788C29.205 5.4032 30.0283 6.90398 29.977 9.32783C29.9658 9.43174 30.0195 9.51364 30.1045 9.5231C30.1082 9.52368 30.1123 9.52407 30.116 9.52426C30.1186 9.52426 30.1212 9.52426 30.1238 9.52426H30.1284C30.2187 9.51982 30.307 9.43773 30.3362 9.33111C31.1811 6.90514 32.5585 5.4032 34.7685 4.97807C34.8483 4.96996 34.9258 4.90197 34.96 4.81003C34.9602 4.80926 34.9606 4.80868 34.9607 4.8081C34.963 4.80211 34.9649 4.79612 34.9667 4.78994C34.9672 4.78782 34.9677 4.78589 34.9683 4.78376C34.9696 4.77913 34.9706 4.77449 34.9717 4.76966C34.9724 4.76599 34.973 4.76232 34.9737 4.75865C34.9743 4.75556 34.9749 4.75247 34.9753 4.74919C34.976 4.74397 34.9764 4.73876 34.9768 4.73354C34.977 4.732 34.977 4.73045 34.9771 4.72891C34.9776 4.72215 34.9777 4.71539 34.9774 4.70882C34.975 4.6192 34.9226 4.55372 34.8471 4.54638C32.7957 4.12068 31.9731 2.6197 32.0237 0.195662C32.0347 0.0917466 31.9808 0.00965753 31.8958 0.000579452C31.892 0.000193151 31.8882 0 31.8843 0C31.8822 0 31.88 0 31.8779 0Z" fill="#6B73FF"/>
<path d="M7.67946 19.9456L5.93101 28.2079C5.51961 30.1963 5.51961 30.3677 7.37091 30.3677H10.4221L9.59932 34.2075H5.62246C1.98843 34.2075 0.514249 33.0075 1.4399 28.6535L3.2912 19.9456H0L0.822798 16.1058H4.114L5.17678 11.169H9.56504L8.50226 16.1058H13.4391L12.6163 19.9456H7.67946Z" fill="#141414"/>
<path d="M14.5431 19.9456L15.3659 16.1058C21.8111 16.1058 21.9826 16.2773 20.9541 20.0827L18.8971 27.7622C18.3485 29.8877 18.4171 30.3677 20.337 30.3677H21.674L20.8512 34.2075H17.7314C14.0974 34.2075 13.0689 33.2132 14.166 29.1335L16.1544 21.7969C16.6344 19.9456 16.6001 19.9456 14.5431 19.9456Z" fill="#141414"/>
<path d="M22.9519 25.568C24.1175 20.1513 28.3686 15.8316 33.5111 15.8316C35.6367 15.8316 36.9737 17.0315 37.5565 18.1971C37.6937 18.4028 37.8994 18.6771 38.1736 18.54C38.4822 18.3685 38.5165 18.1628 38.3793 17.8543C38.1051 17.2372 38.0022 16.7915 38.1394 16.1058L39.545 9.52344H43.9332L40.5049 25.7052C39.545 30.2306 39.2021 32.0476 39.785 34.2075H35.3281C34.711 31.8762 36.0824 29.9906 36.5966 28.825C36.7337 28.5164 36.8366 28.2764 36.5623 28.1736C36.2881 28.0707 36.0481 28.345 36.0138 28.4478C34.1282 31.8762 31.557 34.4817 28.1286 34.4817C24.3918 34.4817 21.7862 31.1562 22.9519 25.568ZM27.3058 25.8423C26.5859 29.1335 27.9229 30.642 29.7742 30.642C32.6883 30.642 35.671 27.7279 36.9394 21.7283C35.911 20.2884 35.0196 19.6713 33.3054 19.6713C30.2542 19.6713 28.0944 22.0711 27.3058 25.8423Z" fill="#141414"/>
<path d="M43.4527 25.9794L45.544 16.1058H49.9323L47.8753 25.8423C47.1896 28.9621 47.0525 30.2306 48.7666 30.2306C51.0293 30.2306 55.7947 24.6424 56.8575 19.637L57.6117 16.1058H62L59.1888 29.2706C57.3718 37.9101 55.4176 40.7899 46.9154 40.7899H40.8472L41.67 36.9501H46.3668C52.6749 36.9501 53.3949 35.9559 54.4234 31.1562C54.8348 29.2021 55.6233 28.105 55.9661 27.4536C56.1376 27.1451 56.2061 26.8708 55.9661 26.768C55.6919 26.6651 55.4519 26.9051 55.4176 27.0079C54.2863 29.0992 50.8236 33.9332 46.6411 33.9332C42.39 33.9332 42.2528 31.5333 43.4527 25.9794Z" fill="#141414"/>
</svg>
