<svg width="100" height="101" viewBox="0 0 100 101" fill="none" xmlns="http://www.w3.org/2000/svg">
<g clip-path="url(#clip0_1482_15570)">
<rect y="0.25" width="100" height="100" rx="20.4082" fill="#003507"/>
<path d="M90.931 74.4269C79.6562 75.0637 79.1419 75.5781 78.505 86.8529C77.8682 75.5781 77.3539 75.0637 66.0791 74.4269C77.3539 73.7901 77.8682 73.2758 78.505 62.001C79.1419 73.2758 79.6562 73.7901 90.931 74.4269Z" fill="white"/>
<path d="M45.8475 15.9811C38.0262 16.422 37.667 16.7812 37.218 24.6107C36.7771 16.7894 36.4179 16.4302 28.5884 15.9811C36.4097 15.5403 36.7689 15.1811 37.218 7.35156C37.6588 15.1729 38.0181 15.5321 45.8475 15.9811Z" fill="white"/>
<path d="M59.7838 39.8063C59.7838 39.8063 71.3525 44.8355 61.4166 63.9888C51.4889 83.142 50.4766 93.6902 50.4766 93.6902C50.4766 93.6902 44.6473 87.1343 48.5906 77.4761C48.5906 77.4761 42.9981 89.0203 43.1206 92.3268C43.1206 92.3268 32.1969 88.6855 23.951 81.1418L30.8416 69.9731L22.9386 78.9456L25.4451 67.9811C25.4451 67.9811 19.0688 75.4105 18.7667 77.7945C18.7667 77.7945 13.0844 73.9736 13.5416 70.1201C14.007 66.2666 16.9543 62.9437 16.9543 62.9437C16.9543 62.9437 9.94936 68.4138 8.99414 69.9813C8.99414 69.9813 11.3373 56.8532 24.2694 47.2358C37.2015 37.6265 48.9744 28.5478 59.7838 39.8063Z" fill="#EAA9CB"/>
<path d="M61.8665 41.2677C47.7506 46.7541 35.0797 56.3307 25.3969 68.2341L25.4541 67.981C25.4541 67.981 19.9187 74.4308 18.9227 77.2393C18.8247 77.3862 18.7268 77.5413 18.6288 77.6965C17.7797 77.0923 13.1343 73.6307 13.5506 70.1201C14.016 66.2666 16.9633 62.9437 16.9633 62.9437C16.9633 62.9437 9.95839 68.4137 9.00317 69.9813C9.00317 69.9813 11.3463 56.8532 24.2784 47.2358C37.2106 37.6265 48.9834 28.5479 59.7928 39.8063C59.7928 39.8063 60.748 40.2227 61.8747 41.2677H61.8665Z" fill="#FAC6DD"/>
<path d="M51.3421 28.6792C48.6561 31.8306 50.591 37.8966 55.6692 42.2237C60.7473 46.5507 67.0419 47.5059 69.7361 44.3464C72.4222 41.195 70.4872 35.129 65.4091 30.8019C60.3309 26.4749 54.0363 25.5197 51.3421 28.6711V28.6792Z" fill="#FAC6DD"/>
<path d="M63.0734 44.8267C63.0734 44.8267 59.1627 47.6842 55.3174 44.1164C51.472 40.5568 52.4926 36.54 52.4926 36.54C52.4926 36.54 58.0606 45.0635 63.0652 44.8186L63.0734 44.8267Z" fill="#351721"/>
<path d="M65.3272 37.2493C65.3272 37.2493 83.0925 18.6838 96.9635 8.07031C110.835 -2.53502 145.19 -20.3575 139.63 -28.1544C134.07 -35.9512 104.124 -9.80118 90.5301 2.6411C76.9449 15.0752 60.4531 32.7753 60.4531 32.7753C60.4531 32.7753 61.3104 38.2698 65.319 37.2493H65.3272Z" fill="#351721"/>
<path d="M41.6182 46.6131C27.7799 47.3968 27.1512 48.0337 26.3675 61.8639C25.5837 48.0255 24.9551 47.3968 11.1167 46.6131C24.9551 45.8293 25.5837 45.1925 26.3675 31.3623C27.1512 45.2007 27.788 45.8293 41.6182 46.6131Z" fill="white"/>
</g>
<defs>
<clipPath id="clip0_1482_15570">
<rect y="0.25" width="100" height="100" rx="20.4082" fill="white"/>
</clipPath>
</defs>
</svg>
